<svg width="16" height="17" viewBox="0 0 16 17" fill="none" xmlns="http://www.w3.org/2000/svg">
<path fill-rule="evenodd" clip-rule="evenodd" d="M8.52262 3.28077C8.18032 3.18809 7.81953 3.18809 7.47723 3.28077C7.12087 3.37726 6.77527 3.63005 5.78974 4.39657L4.05641 5.74472C3.42211 6.23806 3.20915 6.41103 3.05862 6.61456C2.91396 6.81015 2.80619 7.03049 2.74062 7.26476C2.67238 7.50853 2.66659 7.78283 2.66659 8.58639V12.9996C2.66659 13.5133 2.67383 13.6224 2.6953 13.6932C2.75993 13.9062 2.92667 14.073 3.13974 14.1376C3.21052 14.1591 3.31957 14.1663 3.83326 14.1663H4.24993C4.33522 14.1663 4.35375 14.1661 4.36597 14.1655C4.70844 14.1487 4.9823 13.8748 4.99912 13.5323C4.99972 13.5201 4.99993 13.5016 4.99993 13.4163V11.4996C4.99993 9.84278 6.34307 8.49963 7.99993 8.49963C9.65678 8.49963 10.9999 9.84278 10.9999 11.4996V13.4163C10.9999 13.5016 11.0001 13.5201 11.0007 13.5323C11.0176 13.8748 11.2914 14.1487 11.6339 14.1655C11.6461 14.1661 11.6646 14.1663 11.7499 14.1663H12.1666C12.6803 14.1663 12.7893 14.1591 12.8601 14.1376C13.0732 14.073 13.2399 13.9062 13.3046 13.6932C13.326 13.6224 13.3333 13.5133 13.3333 12.9996V8.58639C13.3333 7.78283 13.3275 7.50853 13.2592 7.26476C13.1937 7.03049 13.0859 6.81015 12.9412 6.61456C12.7907 6.41103 12.5777 6.23806 11.9434 5.74472L10.2101 4.39657C9.22458 3.63005 8.87898 3.37726 8.52262 3.28077ZM7.12877 1.99378C7.69927 1.83931 8.30058 1.83931 8.87108 1.99378C9.51994 2.16946 10.0893 2.61272 10.9153 3.25581C10.9525 3.28484 10.9903 3.31427 11.0287 3.3441L12.762 4.69225C12.786 4.71089 12.8096 4.72926 12.833 4.74739C13.3692 5.16417 13.7401 5.45248 14.0132 5.8217C14.2543 6.14768 14.4339 6.51491 14.5432 6.90536C14.667 7.34759 14.6668 7.81741 14.6666 8.49656C14.6666 8.5261 14.6666 8.55604 14.6666 8.58639V12.9996C14.6666 13.0279 14.6666 13.0558 14.6667 13.0835C14.6671 13.4644 14.6675 13.7933 14.5805 14.0802C14.3866 14.7194 13.8864 15.2196 13.2472 15.4135C12.9603 15.5005 12.6313 15.5002 12.2505 15.4997C12.2228 15.4997 12.1948 15.4996 12.1666 15.4996L11.736 15.4996C11.6725 15.4996 11.618 15.4997 11.5685 15.4972C10.5411 15.4468 9.71948 14.6252 9.669 13.5978C9.66657 13.5482 9.66658 13.4937 9.66659 13.4303L9.66659 11.4996C9.66659 10.5792 8.9204 9.83297 7.99993 9.83297C7.07945 9.83297 6.33326 10.5792 6.33326 11.4996L6.33326 13.4303C6.33327 13.4937 6.33329 13.5482 6.33085 13.5978C6.28038 14.6252 5.4588 15.4468 4.4314 15.4972C4.38184 15.4997 4.32733 15.4996 4.26389 15.4996L3.83326 15.4996C3.80502 15.4996 3.77706 15.4997 3.74938 15.4997C3.36853 15.5002 3.03959 15.5005 2.75269 15.4135C2.11349 15.2196 1.61328 14.7194 1.41938 14.0802C1.33235 13.7933 1.33274 13.4644 1.33319 13.0835C1.33323 13.0558 1.33326 13.0279 1.33326 12.9996V8.58639C1.33326 8.55604 1.33325 8.5261 1.33324 8.49655C1.33301 7.81741 1.33285 7.34759 1.45664 6.90536C1.56593 6.51491 1.74554 6.14768 1.98664 5.8217C2.25972 5.45248 2.63067 5.16416 3.1669 4.74739C3.19022 4.72926 3.21386 4.71089 3.23782 4.69225L4.97115 3.3441C5.00951 3.31427 5.04732 3.28483 5.0846 3.25581C5.91059 2.61272 6.47991 2.16946 7.12877 1.99378Z" fill="white"/>
</svg>
