<svg width="16" height="16" viewBox="0 0 16 16" fill="none" xmlns="http://www.w3.org/2000/svg">
<path fill-rule="evenodd" clip-rule="evenodd" d="M15.1667 12V4.66663C15.1667 3.56206 14.2712 2.66663 13.1667 2.66663L2.83334 2.66664C1.72877 2.66664 0.833344 3.56207 0.833344 4.66664V12C0.833344 13.1045 1.72877 14 2.83334 14L13.1667 14C14.2712 14 15.1667 13.1045 15.1667 12ZM13.8333 6.17293V12C13.8333 12.3681 13.5349 12.6666 13.1667 12.6666L2.83334 12.6666C2.46515 12.6666 2.16668 12.3681 2.16668 12L2.16668 6.17285L6.87545 9.37481C7.55417 9.83634 8.44598 9.83634 9.12469 9.37481L13.8333 6.17293ZM13.8258 4.5657C13.7771 4.2454 13.5006 3.99996 13.1667 3.99996L2.83334 3.99997C2.49949 3.99997 2.22296 4.24537 2.17428 4.56562L7.6252 8.27225C7.85144 8.42609 8.14871 8.42609 8.37495 8.27225L13.8258 4.5657Z" fill="white"/>
</svg>
