<svg width="40" height="40" viewBox="0 0 40 40" fill="none" xmlns="http://www.w3.org/2000/svg">
<path fill-rule="evenodd" clip-rule="evenodd" d="M14.1668 4.86995C12.7861 4.86995 11.6668 5.98924 11.6668 7.36995V32.6304C11.6668 34.0111 12.7861 35.1304 14.1668 35.1304H25.8335C27.2142 35.1304 28.3335 34.0111 28.3335 32.6304V7.36995C28.3335 5.98924 27.2142 4.86995 25.8335 4.86995H25.6945L25.2886 5.84404C25.0298 6.46507 24.423 6.86958 23.7502 6.86958H16.2502C15.5774 6.86958 14.9706 6.46507 14.7117 5.84404L14.3058 4.86995H14.1668ZM8.3335 7.36995C8.3335 4.14829 10.9452 1.53662 14.1668 1.53662H25.8335C29.0552 1.53662 31.6668 4.14829 31.6668 7.36995V32.6304C31.6668 35.852 29.0552 38.4637 25.8335 38.4637H14.1668C10.9452 38.4637 8.3335 35.852 8.3335 32.6304V7.36995Z" fill="#7772F1"/>
</svg>
